<svg width="16" height="16" viewBox="0 0 16 16" fill="none" xmlns="http://www.w3.org/2000/svg">
<path d="M1.72367 11.6094C1.47361 11.8593 1.33308 12.1984 1.33301 12.552V14C1.33301 14.1768 1.40325 14.3464 1.52827 14.4714C1.65329 14.5965 1.82286 14.6667 1.99967 14.6667H3.99967C4.17649 14.6667 4.34605 14.5965 4.47108 14.4714C4.5961 14.3464 4.66634 14.1768 4.66634 14V13.3334C4.66634 13.1565 4.73658 12.987 4.8616 12.862C4.98663 12.7369 5.1562 12.6667 5.33301 12.6667H5.99967C6.17649 12.6667 6.34605 12.5965 6.47108 12.4714C6.5961 12.3464 6.66634 12.1768 6.66634 12V11.3334C6.66634 11.1565 6.73658 10.987 6.8616 10.862C6.98663 10.7369 7.1562 10.6667 7.33301 10.6667H7.44767C7.80127 10.6666 8.14035 10.5261 8.39034 10.276L8.93301 9.73336C9.85956 10.0561 10.8682 10.0549 11.794 9.72986C12.7198 9.40483 13.5078 8.77525 14.0292 7.94411C14.5507 7.11297 14.7746 6.12947 14.6644 5.15452C14.5542 4.17956 14.1164 3.27086 13.4226 2.57707C12.7288 1.88328 11.8201 1.44548 10.8452 1.33528C9.87023 1.22509 8.88673 1.44902 8.05559 1.97045C7.22445 2.49188 6.59487 3.27994 6.26984 4.20571C5.94481 5.13147 5.94358 6.14014 6.26634 7.06669L1.72367 11.6094Z" stroke="#F8FAFC" stroke-width="1.33333" stroke-linecap="round" stroke-linejoin="round"/>
<path d="M11.0003 5.33329C11.1844 5.33329 11.3337 5.18405 11.3337 4.99996C11.3337 4.81586 11.1844 4.66663 11.0003 4.66663C10.8162 4.66663 10.667 4.81586 10.667 4.99996C10.667 5.18405 10.8162 5.33329 11.0003 5.33329Z" fill="#F8FAFC" stroke="#F8FAFC" stroke-width="1.33333" stroke-linecap="round" stroke-linejoin="round"/>
</svg>
