<svg width="16" height="16" viewBox="0 0 16 16" fill="none" xmlns="http://www.w3.org/2000/svg">
<path d="M10 3.33331L14.2 7.53331C14.3492 7.68196 14.4675 7.85859 14.5483 8.05307C14.629 8.24755 14.6706 8.45606 14.6706 8.66665C14.6706 8.87723 14.629 9.08574 14.5483 9.28022C14.4675 9.47471 14.3492 9.65133 14.2 9.79998L11.3333 12.6666" stroke="#F8FAFC" stroke-width="1.33333" stroke-linecap="round" stroke-linejoin="round"/>
<path d="M6.39034 3.72398C6.14035 3.47391 5.80127 3.33339 5.44767 3.33331H1.99967C1.82286 3.33331 1.65329 3.40355 1.52827 3.52858C1.40325 3.6536 1.33301 3.82317 1.33301 3.99998V7.44798C1.33308 7.80157 1.47361 8.14066 1.72367 8.39065L5.52634 12.1933C5.82935 12.4944 6.23917 12.6634 6.66634 12.6634C7.09351 12.6634 7.50333 12.4944 7.80634 12.1933L10.193 9.80665C10.4941 9.50364 10.6631 9.09382 10.6631 8.66665C10.6631 8.23948 10.4941 7.82966 10.193 7.52665L6.39034 3.72398Z" stroke="#F8FAFC" stroke-width="1.33333" stroke-linecap="round" stroke-linejoin="round"/>
<path d="M4.33333 6.66667C4.51743 6.66667 4.66667 6.51743 4.66667 6.33333C4.66667 6.14924 4.51743 6 4.33333 6C4.14924 6 4 6.14924 4 6.33333C4 6.51743 4.14924 6.66667 4.33333 6.66667Z" fill="#F8FAFC" stroke="#F8FAFC" stroke-width="1.33333" stroke-linecap="round" stroke-linejoin="round"/>
</svg>
